# AST/ASF file generated using VICON BodyLanguage
# -----------------------------------------------
:version 1.10
:name VICON
:units
  mass 1.0
  length 0.45
  angle deg
:documentation
   .ast/.asf automatically generated from VICON data using
   VICON BodyBuilder and BodyLanguage model FoxedUp or BRILLIANT.MOD
:root
   order TX TY TZ RX RY RZ
   axis XYZ
   position 0 0 0  
   orientation 0 0 0 
:bonedata
  begin
     id 1 
     name lhipjoint
     direction 0.547975 -0.797114 0.253638 
     length 2.36201 
     axis 0 0 0  XYZ
  end
  begin
     id 2 
     name lfemur
     direction 0.34202 -0.939693 0  
     length 7.69075  
     axis 0 0 20  XYZ
    dof rx ry rz
    limits (-160.0 20.0)
           (-70.0 70.0)
           (-60.0 70.0)
  end
  begin
     id 3 
     name ltibia
     direction 0.34202 -0.939693 0   
     length 7.91399   
     axis 0 0 20   XYZ
    dof rx
    limits (-10.0 170.0)
  end
  begin
     id 4 
     name lfoot
     direction 0.0705293 -0.193778 0.978507   
     length 2.13618   
     axis -90 7.62852e-016 20   XYZ
    dof rx rz
    limits (-45.0 90.0)
           (-70.0 20.0)
  end
  begin
     id 5 
     name ltoes
     direction 1.53592e-011 -4.21925e-011 1   
     length 1.07518   
     axis -90 7.62852e-016 20   XYZ
    dof rx
    limits (-90.0 20.0)
  end
  begin
     id 6 
     name rhipjoint
     direction -0.57 -0.782963 0.249136   
     length 2.4047  
     axis 0 0 0  XYZ 
  end
  begin
     id 7 
     name rfemur
     direction -0.34202 -0.939693 0   
     length 7.51486   
     axis 0 0 -20   XYZ
    dof rx ry rz
    limits (-160.0 20.0)
           (-70.0 70.0)
           (-70.0 60.0)
  end
  begin
     id 8 
     name rtibia
     direction -0.34202 -0.939693 0   
     length 8.08317   
     axis 0 0 -20   XYZ
    dof rx
    limits (-10.0 170.0)
 end
 begin
     id 9 
     name rfoot
     direction -0.104954 -0.281256 0.953876   
     length 2.30343  
     axis -90 -7.62852e-016 -20   XYZ
    dof rx rz
    limits (-45.0 90.0)
           (-20.0 70.0)
  end
  begin
     id 10 
     name rtoes
     direction -1.53556e-011 -4.21922e-011 1   
     length 1.14803   
     axis -90 -7.62852e-016 -20   XYZ
    dof rx
    limits (-90.0 20.0)
  end
  begin
     id 11 
     name lowerback
     direction -0.0152855 0.99353 -0.11254   
     length 2.05311   
     axis 0 0 0   XYZ
    dof rx ry rz
    limits (-20.0 45.0)
           (-30.0 30.0)
           (-30.0 30.0)
  end
  begin
     id 12 
     name upperback
     direction -0.00157509 0.999443 -0.033332   
     length 2.06353   
     axis 0 0 0   XYZ
    dof rx ry rz
    limits (-20.0 45.0)
           (-30.0 30.0)
           (-30.0 30.0)
  end
  begin
     id 13 
     name thorax
     direction 0.00577788 0.999804 0.0189484   
     length 2.08472   
     axis 0 0 0   XYZ
    dof rx ry rz
    limits (-20.0 45.0)
           (-30.0 30.0)
           (-30.0 30.0)
  end
  begin
     id 14 
     name lowerneck
     direction -1.09301e-005 0.994719 0.10264   
     length 1.76249   
     axis 0 0 0   XYZ
    dof rx ry rz
    limits (-20.0 45.0)
           (-30.0 30.0)
           (-30.0 30.0)
  end
  begin
     id 15 
     name upperneck
     direction 0.0495018 0.988526 -0.142706   
     length 1.77897   
     axis 0 0 0   XYZ
    dof rx ry rz
    limits (-20.0 45.0)
           (-30.0 30.0)
           (-30.0 30.0)
  end
  begin
     id 16
     name head
     direction 0.0142736 0.998114 -0.0597101  
     length 1.78934  
     axis 0 0 0   XYZ
    dof rx ry rz
    limits (-20.0 45.0)
           (-30.0 30.0)
           (-30.0 30.0)
  end
  begin
     id 17 
     name lclavicle
     direction 0.918111 0.396107 -0.0130883  
     length 3.37276  
     axis 0 0 0   XYZ
    dof ry rz
    limits (-20.0 10.0)
           (0.0 20.0)
  end
  begin
     id 18 
     name lhumerus
     direction 1 -4.48975e-011 -3.26108e-027   
     length 5.34298   
     axis 180 -30 -90   XYZ
    dof rx ry rz
    limits (-60.0 90.0)
           (-90.0 90.0)
           (-90.0 90.0)
  end
  begin
     id 19
     name lradius
     direction 1 -4.48964e-011 -8.84413e-028   
     length 3.67262   
     axis 180 -30 -90   XYZ
    dof rx
    limits (-10.0 170.0)
  end
  begin
     id 20
     name lwrist
     direction 1 -4.48991e-011 -1.24264e-027   
     length 1.83631   
     axis -2.17013e-015 90 90   XYZ
    dof ry
    limits (-180.0 0.0)
 end
  begin
     id 21 
     name lhand
     direction 1 -4.48855e-011 -2.48528e-027   
     length 0.599298   
     axis 1.58582e-015 90 90   XYZ
    dof rx rz
    limits (-90.0 90.0)
           (-45.0 45.0)
  end
  begin
     id 22 
     name lfingers
     direction 1 -4.48811e-011 -4.97056e-027   
     length 0.48317   
     axis 3.17164e-015 90 90   XYZ
    dof rx
    limits (0.0 90.0)
  end
  begin
     id 23
     name lthumb
     direction 0.707107 -6.34882e-011 0.707107   
     length 0.693738   
     axis -90 45 2.85299e-015   XYZ
    dof rx rz
    limits (-45.0 45.0)
           (-45.0 45.0)
  end
  begin
     id 24 
     name rclavicle
     direction -0.920511 0.384752 -0.0680135   
     length 3.43787  
     axis 0 0 0   XYZ 
    dof ry rz
    limits (-10.0 20.0)
           (-20.0 0.0)
  end
  begin
     id 25 
     name rhumerus
     direction -0.999976 -0.00330524 0.00603274  
     length 5.5498   
     axis 180 30 90   XYZ
    dof rx ry rz
    limits (-90.0 60.0)
           (-90.0 90.0)
           (-90.0 90.0)
  end
  begin
     id 26 
     name rradius
     direction -1 -4.48967e-011 8.62438e-027   
     length 3.69401   
     axis 180 30 90   XYZ
    dof rx
    limits (-10.0 170.0)
  end
  begin
     id 27 
     name rwrist
     direction -1 -4.4897e-011 9.54866e-027   
     length 1.84701   
     axis -7.69462e-015 -90 -90   XYZ
    dof ry
    limits (-180.0 0.0)
  end
  begin
     id 28
     name rhand
     direction -1 -4.48982e-011 1.90973e-026   
     length 0.638113   
     axis -1.21857e-014 -90 -90   XYZ
    dof rx rz
    limits (-90.0 90.0)
           (-45.0 45.0)
  end
  begin
     id 29
     name rfingers
     direction -1 -4.48936e-011 3.81946e-026   
     length 0.514463   
     axis -2.43714e-014 -90 -90   XYZ
    dof rx
    limits (0.0 90.0)
  end
  begin
     id 30
     name rthumb
     direction -0.707107 -6.34942e-011 0.707107   
     length 0.738669   
     axis -90 -45 -2.85299e-015   XYZ
    dof rx rz
    limits (-45.0 45.0)
           (-45.0 45.0)
  end
:hierarchy
  begin
    root lhipjoint rhipjoint lowerback
    lhipjoint lfemur
    lfemur ltibia
    ltibia lfoot
    lfoot ltoes
    rhipjoint rfemur
    rfemur rtibia
    rtibia rfoot
    rfoot rtoes
    lowerback upperback
    upperback thorax
    thorax lowerneck lclavicle rclavicle
    lowerneck upperneck
    upperneck head
    lclavicle lhumerus
    lhumerus lradius
    lradius lwrist
    lwrist lhand lthumb
    lhand lfingers
    rclavicle rhumerus
    rhumerus rradius
    rradius rwrist
    rwrist rhand rthumb
    rhand rfingers
  end

#!OML:ASF F:\twosubjects\two\Thursday\Session 1\Rory.ASF
:FULLY-SPECIFIED
:DEGREES
179
root 4.03105 18.4852 -6.67989 6.21012 34.6578 -0.235427
lowerback 2.43801 0.535298 -5.32431
upperback 4.66446 1.08509 -8.33332
thorax 3.56603 0.597856 -5.71153
lowerneck -2.90204 -5.88779 -12.0997
upperneck 26.6365 -3.54955 -10.2993
head 9.09934 -3.63057 -1.80735
rclavicle -4.45278e-014 -9.85972e-014
rhumerus 17.6521 -1.20396 -76.1196
rradius 96.4242
rwrist 43.1938
rhand -22.0062 13.9888
rfingers 7.12502
rthumb 4.40275 -15.9454
lclavicle -4.45278e-014 -9.85972e-014
lhumerus -29.6451 11.2368 69.5394
lradius 37.5519
lwrist -16.9431
lhand -11.3424 31.5138
lfingers 7.12502
lthumb 14.6906 60.9733
rfemur -14.4768 -1.62859 21.7007
rtibia 21.1066
rfoot -13.1046 -11.184
rtoes 0.376573
lfemur -18.1374 7.44341 -10.3007
ltibia 27.1923
lfoot -11.1935 14.9478
ltoes 12.2341
180
root 4.03051 18.4857 -6.67512 6.21768 35.2426 -0.471743
lowerback 2.2501 0.813464 -4.9801
upperback 4.72068 1.50244 -8.62108
thorax 3.77742 0.830343 -6.21399
lowerneck -2.4426 -6.36222 -11.6954
upperneck 26.386 -4.45482 -9.93125
head 8.90704 -3.95429 -1.79566
rclavicle -3.57812e-014 1.90833e-014
rhumerus 16.4049 -2.64532 -76.0438
rradius 97.3523
rwrist 42.6932
rhand -21.5641 13.7045
rfingers 7.12502
rthumb 4.82963 -16.2204
lclavicle -3.57812e-014 1.90833e-014
lhumerus -29.1898 10.2434 69.4575
lradius 37.3749
lwrist -16.6624
lhand -12.3038 30.231
lfingers 7.12502
lthumb 13.7642 59.7557
rfemur -14.5155 -1.93374 21.9508
rtibia 20.951
rfoot -13.173 -11.3514
rtoes 0.96883
lfemur -18.2848 7.42773 -10.0714
ltibia 26.9616
lfoot -10.6539 15.8746
ltoes 16.1227
181
root 4.03517 18.4849 -6.67111 6.10596 35.7768 -0.951968
lowerback 2.13215 0.928422 -4.45966
upperback 4.70775 1.67302 -8.72697
thorax 3.86073 0.939163 -6.62186
lowerneck -2.4652 -6.62939 -11.7404
upperneck 26.4903 -4.8823 -9.58977
head 8.95876 -4.13303 -1.71455
rclavicle -3.57812e-014 3.81667e-014
rhumerus 15.0994 -3.36483 -75.9065
rradius 98.4947
rwrist 41.2237
rhand -20.5971 12.1457
rfingers 7.12502
rthumb 5.76339 -17.7559
lclavicle -3.57812e-014 3.81667e-014
lhumerus -29.0063 9.99472 69.378
lradius 37.2039
lwrist -16.7411
lhand -13.3549 28.9005
lfingers 7.12502
lthumb 12.751 58.4912
rfemur -14.5233 -1.76498 22.3774
rtibia 20.7372
rfoot -13.1914 -11.9437
rtoes 0.668492
lfemur -18.3609 7.14234 -9.59942
ltibia 26.6873
lfoot -10.504 16.8934
ltoes 18.1324
182
root 4.03459 18.4849 -6.66179 5.92822 36.1426 -1.24152
lowerback 2.20611 0.810308 -4.39707
upperback 4.70302 1.5033 -8.65458
thorax 3.7974 0.853849 -6.58137
lowerneck -3.06768 -6.67324 -12.1666
upperneck 26.8017 -4.75107 -9.57836
head 9.20936 -4.14157 -1.67097
rclavicle 1.12115e-013 -1.27222e-013
rhumerus 14.0316 -3.03784 -75.7239
rradius 99.7155
rwrist 38.9441
rhand -20.0735 9.80724
rfingers 7.12502
rthumb 6.26886 -20.08
lclavicle 1.12115e-013 -1.27222e-013
lhumerus -29.1045 11.3374 69.2226
lradius 37.1174
lwrist -17.549
lhand -13.4425 29.0023
lfingers 7.12502
lthumb 12.6667 58.5982
rfemur -14.2587 -1.17004 22.6235
rtibia 20.4123
rfoot -13.0466 -12.7903
rtoes 0.441658
lfemur -18.1223 6.73982 -9.24651
ltibia 26.3327
lfoot -10.9291 17.6891
ltoes 19.2396
183
root 4.02708 18.4879 -6.6442 5.78227 36.5743 -1.35058
lowerback 2.27843 0.561754 -4.76236
upperback 4.71186 1.15752 -8.48509
thorax 3.72472 0.661816 -6.19316
lowerneck -3.25054 -6.63276 -12.8473
upperneck 26.5668 -4.58122 -9.64721
head 9.19819 -4.12286 -1.57492
rclavicle 3.18055e-014 -6.36111e-015
rhumerus 13.2254 -2.49568 -75.3807
rradius 100.83
rwrist 36.7626
rhand -19.8769 9.4985
rfingers 7.12502
rthumb 6.45866 -20.383
lclavicle 3.18055e-014 -6.36111e-015
lhumerus -29.4807 12.866 69.0957
lradius 37.1582
lwrist -17.9884
lhand -13.5764 29.3077
lfingers 7.12502
lthumb 12.5375 58.9116
rfemur -13.9327 -0.244957 22.7127
rtibia 20.1816
rfoot -13.1689 -13.9233
rtoes 2.10493
lfemur -17.836 6.74052 -9.09866
ltibia 25.9192
lfoot -10.5766 18.2601
ltoes 18.9109
